<svg xmlns="http://www.w3.org/2000/svg" viewBox="0 0 45.709 49.667">
  <defs>
    <style>
      .cls-1 {
        fill: #1d0444;
      }
    </style>
  </defs>
  <g id="_002-creativity" data-name="002-creativity" transform="translate(-32)">
    <g id="Group_20" data-name="Group 20" transform="translate(39.911)">
      <g id="Group_19" data-name="Group 19">
        <path id="Path_6" data-name="Path 6" class="cls-1" d="M133.887,14.072c0-7.76-6.7-14.072-14.943-14.072S104,6.313,104,14.072a13.766,13.766,0,0,0,5.194,10.641,2.358,2.358,0,0,0-.113,3.431,2.342,2.342,0,0,0,0,3.311,2.386,2.386,0,0,0-.686,1.656,2.5,2.5,0,0,0,1.758,2.331v5.947a.8.8,0,0,0,.259.584l0,0,7.911,7.45a.917.917,0,0,0,1.243,0l7.911-7.45,0,0a.8.8,0,0,0,.259-.584V35.442a2.5,2.5,0,0,0,1.758-2.331,2.39,2.39,0,0,0-.686-1.656,2.342,2.342,0,0,0,0-3.311,2.358,2.358,0,0,0-.113-3.431A13.766,13.766,0,0,0,133.887,14.072Zm-14.943,33.6-1.394-1.313h2.788ZM122.1,44.7h-6.3l-3.379-3.183,1.257-.789,2.149,1.349a.924.924,0,0,0,.975,0l2.15-1.349,2.149,1.349a.924.924,0,0,0,.975,0l2.15-1.349,1.257.79Zm3.88-4.858-1.27-.8a.924.924,0,0,0-.975,0l-2.15,1.349-2.149-1.349a.924.924,0,0,0-.975,0l-2.15,1.349-2.149-1.349a.924.924,0,0,0-.975,0l-1.271.8V35.594h14.064Zm.879-5.9H111.032a.829.829,0,1,1,0-1.656h15.822a.829.829,0,1,1,0,1.656Zm0-3.311H111.032a.829.829,0,1,1,0-1.656h15.822a.829.829,0,1,1,0,1.656Zm0-3.311H111.032a.829.829,0,1,1,0-1.656h15.819l.011,0a.828.828,0,1,1-.007,1.654ZM116.194,14.8a.921.921,0,0,0,1.1,0,4.029,4.029,0,0,0,1.646-3.209,3.928,3.928,0,0,0-.047-.567c-.008-.054-.018-.106-.029-.16a3.662,3.662,0,0,0-.106-.421c-.014-.046-.026-.093-.042-.138a3.956,3.956,0,0,0-.222-.515c-.016-.03-.035-.058-.052-.089a3.984,3.984,0,0,0-.256-.4c-.016-.022-.027-.047-.044-.07a2.711,2.711,0,0,1,1.6,0c-.017.022-.028.047-.044.07a4.251,4.251,0,0,0-.256.4c-.017.03-.036.058-.052.089a3.888,3.888,0,0,0-.222.515c-.016.046-.028.092-.042.138a4.061,4.061,0,0,0-.106.421c-.011.053-.021.106-.029.16a3.7,3.7,0,0,0-.048.567,4.029,4.029,0,0,0,1.646,3.209.921.921,0,0,0,1.1,0,4.029,4.029,0,0,0,1.646-3.209,3.928,3.928,0,0,0-.047-.567c-.008-.054-.018-.106-.029-.16a3.665,3.665,0,0,0-.106-.421c-.014-.046-.026-.093-.043-.138a3.957,3.957,0,0,0-.222-.515c-.016-.031-.036-.06-.054-.091a4.136,4.136,0,0,0-.251-.4c-.017-.024-.029-.05-.047-.073a2.674,2.674,0,0,1,.8-.122,2.72,2.72,0,0,1,2.637,2.664,3.987,3.987,0,0,1-1.563,3.141l-3.395,2.665a.809.809,0,0,0-.316.636v5.794h-3.516V18.211a.809.809,0,0,0-.316-.636l-3.395-2.665a3.989,3.989,0,0,1-1.563-3.141,2.72,2.72,0,0,1,2.637-2.664,2.669,2.669,0,0,1,.8.122c-.018.023-.03.05-.047.073a3.968,3.968,0,0,0-.251.4c-.017.031-.037.06-.054.091a3.956,3.956,0,0,0-.222.515c-.016.046-.028.093-.043.138a4.065,4.065,0,0,0-.106.421c-.011.053-.021.106-.029.16a3.9,3.9,0,0,0,1.6,3.776Zm.113-3.209a2.3,2.3,0,0,1,.059-.485c.009-.038.018-.077.028-.114a2.352,2.352,0,0,1,.17-.452l.019-.032a2.489,2.489,0,0,1,.164-.243,2.487,2.487,0,0,1,.163.243c.005.011.013.021.019.031a2.312,2.312,0,0,1,.17.452c.011.038.019.076.028.114a2.031,2.031,0,0,1,0,.971c-.009.038-.018.077-.028.114a2.352,2.352,0,0,1-.17.452c-.005.011-.013.022-.019.032a2.488,2.488,0,0,1-.163.243,2.489,2.489,0,0,1-.164-.243c-.006-.011-.014-.022-.019-.032a2.352,2.352,0,0,1-.17-.452c-.011-.038-.019-.076-.028-.114A2.3,2.3,0,0,1,116.306,11.589Zm4.4,0a2.3,2.3,0,0,1,.059-.485c.009-.038.018-.077.028-.114a2.352,2.352,0,0,1,.17-.452l.019-.032a2.487,2.487,0,0,1,.163-.243,2.485,2.485,0,0,1,.163.243c.005.011.013.021.019.031a2.311,2.311,0,0,1,.17.452c.011.038.019.076.028.114a2.031,2.031,0,0,1,0,.971c-.009.038-.018.077-.028.114a2.351,2.351,0,0,1-.17.452c-.005.011-.013.022-.019.032a2.485,2.485,0,0,1-.163.243,2.488,2.488,0,0,1-.163-.243c-.006-.011-.014-.022-.019-.032a2.352,2.352,0,0,1-.17-.452c-.011-.038-.019-.076-.028-.114A2.3,2.3,0,0,1,120.7,11.589Zm6.134,12.417h-4.376V18.6l3.078-2.416a5.6,5.6,0,0,0,2.2-4.413,4.417,4.417,0,0,0-4.4-4.319,4.491,4.491,0,0,0-2.2.577,4.625,4.625,0,0,0-4.389,0,4.5,4.5,0,0,0-2.2-.577,4.417,4.417,0,0,0-4.4,4.319,5.6,5.6,0,0,0,2.2,4.414l3.078,2.415v5.407h-4.376a12.22,12.22,0,0,1-5.293-9.933c0-6.847,5.915-12.417,13.185-12.417s13.185,5.57,13.185,12.417A12.22,12.22,0,0,1,126.835,24.006Z" transform="translate(-104)"/>
      </g>
    </g>
    <g id="Group_22" data-name="Group 22" transform="translate(68.297 0.105)">
      <g id="Group_21" data-name="Group 21" transform="translate(0 0)">
        <path id="Path_7" data-name="Path 7" class="cls-1" d="M0,0,4.828.145l.051,1.707L.051,1.707Z" transform="translate(0 3.45) rotate(-45)"/>
      </g>
    </g>
    <g id="Group_24" data-name="Group 24" transform="translate(68.295 23.28)">
      <g id="Group_23" data-name="Group 23" transform="translate(0 0)">
        <path id="Path_8" data-name="Path 8" class="cls-1" d="M0,0,1.707.051l.145,4.828L.145,4.828Z" transform="translate(0 1.309) rotate(-45)"/>
      </g>
    </g>
    <g id="Group_26" data-name="Group 26" transform="translate(72.435 13.244)">
      <g id="Group_25" data-name="Group 25">
        <rect id="Rectangle_10" data-name="Rectangle 10" class="cls-1" width="5.274" height="1.656"/>
      </g>
    </g>
    <g id="Group_28" data-name="Group 28" transform="translate(36.653 0.104)">
      <g id="Group_27" data-name="Group 27" transform="translate(0 0)">
        <path id="Path_9" data-name="Path 9" class="cls-1" d="M0,0,1.707.051l.145,4.828L.145,4.828Z" transform="translate(0 1.309) rotate(-45)"/>
      </g>
    </g>
    <g id="Group_30" data-name="Group 30" transform="translate(36.652 23.281)">
      <g id="Group_29" data-name="Group 29" transform="translate(0 0)">
        <path id="Path_10" data-name="Path 10" class="cls-1" d="M0,0,4.828.145l.051,1.707L.051,1.707Z" transform="translate(0 3.45) rotate(-45)"/>
      </g>
    </g>
    <g id="Group_32" data-name="Group 32" transform="translate(32 13.244)">
      <g id="Group_31" data-name="Group 31">
        <rect id="Rectangle_13" data-name="Rectangle 13" class="cls-1" width="5.274" height="1.656"/>
      </g>
    </g>
  </g>
</svg>
