<svg xmlns="http://www.w3.org/2000/svg" width="42" height="27" viewBox="0 0 42 27">
  <g fill="#FFF" transform="translate(-1 -1)">
    <path d="M28.956 6.594L38.74 6.594C38.929036 6.60585029 39.1140525 6.53591452 39.2479835 6.40198349 39.3819145 6.26805247 39.4518503 6.083036 39.44 5.894L39.44 3.094C39.4518503 2.904964 39.3819145 2.71994753 39.2479835 2.58601651 39.1140525 2.45208548 38.929036 2.38214971 38.74 2.394L28.956 2.394C28.766964 2.38214971 28.5819475 2.45208548 28.4480165 2.58601651 28.3140855 2.71994753 28.2441497 2.904964 28.256 3.094L28.256 5.894C28.2441497 6.083036 28.3140855 6.26805247 28.4480165 6.40198349 28.5819475 6.53591452 28.766964 6.60585029 28.956 6.594zM29.656 3.794L38.043 3.794 38.043 5.194 29.656 5.194 29.656 3.794zM18.821 12.884C20.9104298 11.5366231 21.897246 8.99898053 21.267 6.594 20.498 2.051 15.886.933 13.509 1.003L1.7 1.003C1.510964.991149713 1.32594753 1.06108548 1.19201651 1.19501651 1.05808548 1.32894753.988149713 1.513964 1 1.703L1 25.465C.988149713 25.654036 1.05808548 25.8390525 1.19201651 25.9729835 1.32594753 26.1069145 1.510964 26.1768503 1.7 26.165L14.42 26.165C17.355 26.165 22.108 24.977 22.667 20.155 23.1920311 17.1380387 21.6103513 14.1478166 18.821 12.884zM21.267 19.943C20.638 25.115 14.208 24.765 13.859 24.765L2.4 24.765 2.4 2.401 13.51 2.401C13.58 2.401 19.101 2.401 19.87 6.801 20.4782512 9.12812236 19.1574767 11.5239764 16.865 12.252 16.5607575 12.3455804 16.3591813 12.6341354 16.376 12.952 16.3610455 13.2922985 16.5998241 13.5913057 16.935 13.652 19.8402983 14.2361885 21.7579052 17.0203253 21.268 19.943L21.267 19.943zM42.933 18.473C42.933 12.323 38.88 7.99 33.149 7.99 27.558 7.99 23.365 12.812 23.365 17.075 23.365 23.085 27.558 27.558 33.149 27.558 37.1775847 27.6504457 40.8231737 25.1826006 42.234 21.408 42.2979635 21.2102224 42.2436317 20.9932833 42.094 20.849 41.9695685 20.664202 41.7575133 20.5579847 41.535 20.569L37.342 20.569C37.0477807 20.5764153 36.7927351 20.774694 36.713 21.058 36.1988839 22.1502614 35.0481072 22.7957407 33.848 22.665 31.821 22.665 30.563 21.407 30.354 19.171L42.235 19.171C42.4233305 19.1821948 42.6074486 19.1122582 42.7408534 18.9788534 42.8742582 18.8454486 42.9441948 18.6613305 42.933 18.473zM29.584 17.773C29.394964 17.7611497 29.2099475 17.8310855 29.0760165 17.9650165 28.9420855 18.0989475 28.8721497 18.283964 28.884 18.473 28.884 21.897 30.771 24.064 33.776 24.064 35.4020442 24.2114985 36.9627478 23.3888384 37.76 21.964L40.416 21.964C38.9528679 24.5959314 36.1588528 26.2078336 33.148 26.157 28.256 26.157 24.761 22.313 24.761 17.072 24.761 13.508 28.395 9.384 33.148 9.384 38.599 9.384 41.255 13.577 41.465 17.771L29.584 17.773z"/>
    <path d="M6.591 11.486L13.58 11.486C15.5099591 11.486 17.0745 9.92145906 17.0745 7.9915 17.0745 6.06154094 15.5099591 4.497 13.58 4.497L6.591 4.497C6.401964 4.48514971 6.21694753 4.55508548 6.08301651 4.68901651 5.94908548 4.82294753 5.87914971 5.007964 5.891 5.197L5.891 10.788C5.87974803 10.9766997 5.94994849 11.1611665 6.08380742 11.294643 6.21766636 11.4281195 6.40233326 11.4977918 6.591 11.486zM7.291 5.895L13.581 5.895C14.6918665 5.95921621 15.559807 6.87877893 15.559807 7.9915 15.559807 9.10422107 14.6918665 10.0237838 13.581 10.088L7.291 10.088 7.291 5.895zM12.881 14.282L6.591 14.282C6.401964 14.2701497 6.21694753 14.3400855 6.08301651 14.4740165 5.94908548 14.6079475 5.87914971 14.792964 5.891 14.982L5.891 21.971C5.87914971 22.160036 5.94908548 22.3450525 6.08301651 22.4789835 6.21694753 22.6129145 6.401964 22.6828503 6.591 22.671L12.881 22.671C15.19673 22.671 17.074 20.79373 17.074 18.478 17.074 16.16227 15.19673 14.285 12.881 14.285L12.881 14.282zM12.881 21.271L7.29 21.271 7.29 15.68 12.881 15.68C14.3633668 15.7641438 15.5223187 16.990747 15.5223187 18.4755 15.5223187 19.960253 14.3633668 21.1868562 12.881 21.271zM33.498 10.787C32.3368734 10.7303688 31.2016726 11.1425775 30.3474081 11.9310281 29.4931436 12.7194787 28.9914402 13.8180644 28.955 14.98L28.955 15.68C28.9431497 15.869036 29.0130855 16.0540525 29.1470165 16.1879835 29.2809475 16.3219145 29.465964 16.3918503 29.655 16.38L37.343 16.38C37.532036 16.3918503 37.7170525 16.3219145 37.8509835 16.1879835 37.9849145 16.0540525 38.0548503 15.869036 38.043 15.68L38.043 14.98C38.0186982 13.8135606 37.5203729 12.7073293 36.662859 11.9162279 35.8053452 11.1251266 34.6626145 10.717398 33.498 10.787zM30.353 14.98C30.541845 13.3862091 31.8930602 12.1856446 33.498 12.1856446 35.1029398 12.1856446 36.454155 13.3862091 36.643 14.98L30.353 14.98z"/>
  </g>
</svg>
