<svg xmlns="http://www.w3.org/2000/svg" width="15" height="29" viewBox="0 0 15 29">
  <path fill="#FFF" d="M10.674,28.986 L4.436,28.986 L4.436,15.986 L1,15.986 L1,10.021 L4.436,10.021 L4.436,6.67 C4.436,3.593 6.361,-7.733072e-17 11.789,-7.733072e-17 C12.9173598,-0.00394630689 14.0449746,0.0584949022 15.166,0.187 L15.742,0.262 L15.603,5.848 L14.968,5.842 C14.968,5.842 13.541,5.828 11.985,5.828 C10.827,5.828 10.674,6.114 10.674,7.25 L10.674,10.022 L15.783,10.022 L15.5,15.991 L10.675,15.991 L10.675,28.991 L10.674,28.986 Z M5.725,27.7 L9.383,27.7 L9.383,14.7 L14.268,14.7 L14.429,11.31 L9.383,11.31 L9.383,7.249 C9.383,5.908 9.692,4.537 11.983,4.537 C12.904,4.537 13.783,4.537 14.342,4.546 L14.42,1.406 C13.851,1.355 12.903,1.29 11.786,1.29 C7.316,1.29 5.723,4.069 5.723,6.67 L5.723,11.311 L2.289,11.311 L2.289,14.7 L5.725,14.7 L5.725,27.7 Z" transform="translate(-1)"/>
</svg>
