<svg xmlns="http://www.w3.org/2000/svg" width="25" height="25" viewBox="0 0 25 25">
  <g fill="#FFF">
    <path d="M3.518,24.014 L20.5,24.014 C22.4389035,24.0096009 24.0096009,22.4389035 24.014,20.5 L24.014,3.518 C24.0118012,1.57753457 22.4404617,0.0044064014 20.5,0 L3.518,0 C1.57597605,0.00220434259 0.00220434259,1.57597605 0,3.518 L0,20.5 C0.0044064014,22.4404617 1.57753457,24.0118012 3.518,24.014 Z M1.407,3.518 C1.40810257,2.3525839 2.3525839,1.40810257 3.518,1.407 L20.5,1.407 C21.6654161,1.40810257 22.6098974,2.3525839 22.611,3.518 L22.611,20.5 C22.6076957,21.6638537 21.6638579,22.6059031 20.5,22.607 L3.518,22.607 C2.35414213,22.6059031 1.41030433,21.6638537 1.407,20.5 L1.407,3.518 Z"/>
    <path d="M12.007 18.339C15.504067 18.339 18.339 15.504067 18.339 12.007 18.339 8.50993296 15.504067 5.675 12.007 5.675 8.50993296 5.675 5.675 8.50993296 5.675 12.007 5.67885783 15.5024678 8.51153218 18.3351422 12.007 18.339zM12.007 7.082C14.7270024 7.082 16.932 9.28699761 16.932 12.007 16.932 14.7270024 14.7270024 16.932 12.007 16.932 9.28699761 16.932 7.082 14.7270024 7.082 12.007 7.08475607 9.28814003 9.28814003 7.08475607 12.007 7.082zM19.043 7.082C19.8969108 7.0819999 20.6667212 6.567563 20.9934052 5.77861359 21.3200892 4.98966417 21.1392976 4.08160703 20.5353485 3.47794399 19.9313994 2.87428095 19.0232567 2.69391967 18.2344621 3.02097747 17.4456676 3.34803526 16.9315955 4.11808932 16.932 4.972 16.9336536 6.13702556 17.8779738 7.08089845 19.043 7.082zM19.043 4.268C19.4295993 4.268 19.743 4.58140068 19.743 4.968 19.743 5.35459932 19.4295993 5.668 19.043 5.668 18.6564007 5.668 18.343 5.35459932 18.343 4.968 18.343 4.58140068 18.6564007 4.268 19.043 4.268z"/>
  </g>
</svg>
