<svg xmlns="http://www.w3.org/2000/svg" width="28" height="28" viewBox="0 0 28 28">
  <path fill="#FFF" d="M3.778 1C2.78089525.990404112 1.82119974 1.37917297 1.11189593 2.08002821.40259212 2.78088346.00235210539 3.73585185 4.4408921e-16 4.733.00308647103 5.73229538.406060307 6.68877305 1.119 7.389 1.80431793 8.09174893 2.74957724 8.48005797 3.731 8.462L3.824 8.462C4.77336555 8.45696837 5.68080518 8.07027944 6.342 7.389 7.05530709 6.68893893 7.45864981 5.73244048 7.462 4.733 7.48946283 3.7492486 7.09970876 2.79974523 6.389 2.119 5.71377351 1.39681648 4.76663393.990899516 3.778 1zM5.69 6.733C5.18100118 7.26612974 4.46752521 7.55494365 3.731 7.526 3.00011724 7.52445637 2.29815251 7.2403022 1.772 6.733 1.22632841 6.21204779.922315072 5.48734377.933 4.733.929331293 3.9814299 1.22936597 3.26023583 1.76503211 2.73304244 2.30069825 2.20584906 3.0265839 1.91735 3.778 1.933 4.49491461 1.93512861 5.18202174 2.22010558 5.69 2.726 6.22988651 3.25379786 6.53262698 3.97799347 6.529 4.733 6.53968493 5.48734377 6.23567159 6.21204779 5.69 6.733zM5.596 9.395L1.819 9.395C1.45283176 9.39782521 1.10317712 9.54776012.848706937 9.81106999.594236755 10.0743799.456324549 10.4289487.466 10.795L.466 27.118C.484451958 27.8834253 1.10057467 28.499548 1.866 28.518L5.597 28.518C6.34664104 28.5048168 6.95823573 27.9137542 6.997 27.165L6.997 10.795C6.97852625 10.0291972 6.36181579 9.41292694 5.596 9.395zM6.062 27.164C6.0410301 27.4046348 5.83751263 27.5880626 5.596 27.584L1.865 27.584C1.61479146 27.5674928 1.41550724 27.3682085 1.399 27.118L1.399 10.794C1.39493742 10.5524874 1.57836518 10.3489699 1.819 10.328L5.597 10.328C5.84720854 10.3445072 6.04649276 10.5437915 6.063 10.794L6.062 27.164zM21.453 8.928L20.474 8.928C18.6997431 8.92472589 17.0063551 9.66975851 15.81 10.98L15.81 10.327C15.7774097 9.82583773 15.3781623 9.42659025 14.877 9.394L10.213 9.394C9.72043785 9.40547399 9.31689571 9.78868764 9.28 10.28L9.28 27.68C9.32103761 28.1619716 9.72939172 28.5291839 10.213 28.519L15.343 28.519C15.8266083 28.5291839 16.2349624 28.1619716 16.276 27.68L16.276 17.603C16.2437942 16.8959581 16.4975988 16.205723 16.9801711 15.6879689 17.4627435 15.1702148 18.1334426 14.8685459 18.841 14.851 19.5735805 14.8437334 20.2787563 15.1291874 20.8 15.644 21.2826756 16.1576644 21.5206271 16.8543923 21.453 17.556L21.453 27.583C21.4855903 28.0841623 21.8848377 28.4834097 22.386 28.516L27.05 28.516C27.5511623 28.4834097 27.9504097 28.0841623 27.983 27.583L27.983 15.551C28.0211661 13.7992105 27.3485016 12.1065918 26.1182966 10.8588663 24.8880917 9.6111408 23.2051541 8.914609 21.453 8.928zM27.053 27.537L27.006 27.584 22.435 27.584 22.388 17.557C22.4572314 16.6166351 22.1368629 15.6891572 21.502 14.992 20.8094118 14.3000952 19.8689705 13.9137654 18.89 13.919 16.9078459 13.9735232 15.3429825 15.6206536 15.39 17.603L15.39 27.584 10.26 27.584 10.26 10.327 14.877 10.327 14.924 10.374 14.924 13.312 16.183 12.053 16.23 12.006C17.2387011 10.6503366 18.8312498 9.8542478 20.521 9.861L21.5 9.861C22.9952417 9.86465296 24.4261092 10.4698638 25.4701577 11.5402486 26.5142062 12.6106335 27.0835904 14.0561312 27.05 15.551L27.053 27.537z" transform="translate(0 -1)"/>
</svg>
