<svg xmlns="http://www.w3.org/2000/svg" width="21" height="15" viewBox="0 0 21 15">
  <g fill="#FFF" fill-rule="evenodd" transform="translate(0 -1)">
    <path d="M12.961 5.209C12.8773598 5.20929554 12.7968057 5.17743192 12.736 5.12L8.952 1.57C8.86410888 1.48998693 8.82620744 1.36878928 8.85285319 1.25295775 8.87949894 1.13712621 8.96654857 1.04467217 9.08056728 1.0111062 9.19458599.977540224 9.31784428 1.00808171 9.403 1.091L13.187 4.641C13.2848613 4.73357813 13.3163968 4.8764619 13.2665937 5.0016306 13.2167907 5.12679929 13.0957128 5.20896016 12.961 5.209zM.329 5.208C.194287185 5.20796016.0732093228 5.12579929.0234062864 5.0006306-.0263967501 4.8754619.00513870447 4.73257813.103 4.64L3.889 1.088C3.97415572 1.00508171 4.09741401.974540224 4.21143272 1.0081062 4.32545143 1.04167217 4.41250106 1.13412621 4.43914681 1.24995775 4.46579256 1.36578928 4.42789112 1.48698693 4.34 1.567L.554 5.117C.49350783 5.17516192.412916934 5.20775646.329 5.208z" transform="translate(3.552 6.991)"/>
    <path fill-rule="nonzero" d="M18.752,15.5 L1.644,15.5 C0.736500728,15.498898 0.00110200398,14.7634993 0,13.856 L0,2.644 C0.00110200398,1.73650073 0.736500728,1.001102 1.644,1 L18.752,1 C19.1885464,0.999469245 19.6074239,1.17237779 19.9164839,1.48068767 C20.2255439,1.78899754 20.3994699,2.20745356 20.4,2.644 L20.4,13.856 C20.3994699,14.2925464 20.2255439,14.7110025 19.9164839,15.0193123 C19.6074239,15.3276222 19.1885464,15.5005308 18.752,15.5 Z M1.644,1.658 C1.09912344,1.65855122 0.657551216,2.10012344 0.657,2.645 L0.657,13.856 C0.657551216,14.4008766 1.09912344,14.8424488 1.644,14.843 L18.752,14.843 C19.2968766,14.8424488 19.7384488,14.4008766 19.739,13.856 L19.739,2.644 C19.7384488,2.09912344 19.2968766,1.65755122 18.752,1.657 L1.644,1.658 Z"/>
    <path d="M10.198,9.902 C9.75614915,9.90683894 9.32732848,9.7524209 8.99,9.467 L0.546,2.1 C0.407928813,1.98070649 0.392706494,1.77207119 0.512,1.634 C0.631293506,1.49592881 0.839928813,1.48070649 0.978,1.6 L9.423,8.966 C9.87481067,9.33210891 10.5211893,9.33210891 10.973,8.966 L19.407,1.612 C19.4963164,1.53465199 19.6201128,1.51082922 19.7317564,1.54950549 C19.8433999,1.58818176 19.9259292,1.68348122 19.9482564,1.7995055 C19.9705835,1.91552977 19.9293164,2.034652 19.84,2.112 L11.406,9.466 C11.0688594,9.75186046 10.6399936,9.90664978 10.198,9.902 Z"/>
  </g>
</svg>
