<svg xmlns="http://www.w3.org/2000/svg" width="34" height="28" viewBox="0 0 34 28">
  <path fill="#FFF" d="M34.805,4.119 C34.6173493,3.94929026 34.3573957,3.88439565 34.112,3.946 L32.958,4.346 C33.5851922,3.614993 34.0735442,2.7755428 34.399,1.869 C34.5140335,1.63735778 34.4676872,1.35807097 34.284,1.176 C34.0999101,0.996257657 33.8232788,0.95035204 33.591,1.061 C32.2353883,1.67237493 30.8484601,2.21179153 29.436,2.677 C29.436,2.735 29.378,2.677 29.321,2.677 C27.8617079,1.78437185 26.2286296,1.21364676 24.531,1.003 C20.371726,1.13458703 17.0851906,4.57506055 17.144,8.736 L17.144,8.967 C11.144,7.813 7.853,6.082 4.275,2.33 L3.699,1.753 L3.353,2.446 C1.391,6.197 2.776,9.602 5.027,11.91 C4.15692179,11.7909129 3.33743655,11.4310459 2.661,10.871 C2.4324284,10.6792665 2.10661316,10.6558787 1.853,10.813 C1.61081241,10.97916 1.49593343,11.2772888 1.564,11.563 C2.42322373,14.1825464 4.20846752,16.3987233 6.585,17.796 C5.61170378,17.8627316 4.642212,17.6201837 3.815,17.103 C3.5545262,16.9772197 3.24683829,16.9993062 3.007,17.161 C2.76499662,17.3268905 2.66926766,17.6376988 2.776,17.911 C3.63416219,20.7049515 6.14714988,22.6646025 9.066,22.816 C6.85373838,24.0738225 4.34338503,24.712206 1.799,24.664 C1.46714726,24.6697197 1.17129416,24.87445 1.049,25.183 C0.941889635,25.4917525 1.03334528,25.8346121 1.28,26.049 C3.358,27.723 7.974,28.704 13.688,28.704 C23.845,28.704 32.155,19.644 32.155,8.504 L32.155,8.331 C33.5407143,7.59539823 34.5632431,6.32266074 34.983,4.811 C35.0427421,4.56508311 34.975988,4.30556723 34.805,4.119 Z M31.342,7.408 L30.999,7.524 L30.999,8.505 C30.999,19.008 23.206,27.553 13.683,27.553 C8.431,27.553 4.911,26.687 3.007,25.764 C5.94350577,25.6622669 8.77209637,24.6318743 11.086,22.821 L12.529,21.782 L10.799,21.782 C7.51,21.782 5.49,20.859 4.336,18.666 C5.4239954,18.9695882 6.55906866,19.0675972 7.683,18.955 C8.14301081,18.9068767 8.60557633,18.8875057 9.068,18.897 L9.241,17.743 C6.60153768,16.8703523 4.41994029,14.9796346 3.181,12.491 C4.31567166,12.9521668 5.53493144,13.1685531 6.759,13.126 L8.547,13.126 L7.105,12.083 C5.893,11.217 2.315,8.159 4.046,3.773 C7.739,7.409 11.26,9.082 17.608,10.236 L18.301,10.351 L18.301,8.736 C18.2381181,5.21034994 21.0091938,2.28320111 24.533,2.153 C25.86,2.095 28.053,3.307 28.688,3.653 C29.0038632,3.83233374 29.3795643,3.8739176 29.727,3.768 C30.593,3.479 31.627,3.075 32.786,2.614 C32.2224691,3.5413026 31.4997201,4.36188503 30.651,5.038 C30.4235618,5.24093973 30.3535937,5.56772722 30.478,5.846 C30.6071897,6.1309194 30.9410253,6.25955739 31.228,6.135 L33.479,5.385 C33.0437122,6.30199147 32.2820847,7.02368345 31.343,7.409 L31.342,7.408 Z" transform="translate(-1 -1)"/>
</svg>
